<svg width="30" height="18" viewBox="0 0 30 18" fill="none" xmlns="http://www.w3.org/2000/svg">
<path fill-rule="evenodd" clip-rule="evenodd" d="M0.73291 9.13448V17.7061L5.62409 17.6736C9.70778 17.6466 10.6047 17.6215 11.0566 17.5224C12.4083 17.2256 13.2438 16.8102 14.0405 16.0387C14.9892 15.1199 15.3744 14.1569 15.3687 12.718C15.3603 10.5508 14.3788 9.09655 12.4954 8.46067L12.2313 8.37153L12.6788 8.12531C13.595 7.62102 14.2159 6.86727 14.4562 5.96736C14.5956 5.44551 14.6132 4.23068 14.4897 3.65324C14.2271 2.42507 13.4134 1.53165 12.1279 1.05972C11.0519 0.664779 10.584 0.6322 5.46943 0.596153L0.73291 0.562744V9.13448ZM19.3697 2.53721V3.36675H22.9269H26.4841V2.53721V1.70766H22.9269H19.3697V2.53721ZM9.53201 3.68107C10.282 3.95791 10.6621 4.37585 10.7932 5.06754C10.9479 5.88358 10.6393 6.70513 10.0313 7.09577C9.47107 7.45556 9.00415 7.51446 6.70982 7.51446H4.59946V5.51096V3.50747L6.90005 3.53311C8.78778 3.55415 9.26011 3.58069 9.53201 3.68107ZM21.952 5.03247C18.4732 5.59995 16.275 8.54867 16.5928 12.2213C16.8416 15.0972 18.4123 17.0227 21.1361 17.7911C21.6508 17.9364 21.9103 17.958 23.1202 17.9568C24.7083 17.9552 25.0978 17.8819 26.1597 17.3844C27.2822 16.8587 28.2175 15.8284 28.7648 14.515C28.8714 14.2589 28.9587 14.0043 28.9587 13.9493C28.9587 13.8695 28.6529 13.8491 27.4523 13.8491H25.946L25.7924 14.1427C25.5953 14.5195 25.0908 14.9463 24.5508 15.1933C24.1697 15.3677 24.0291 15.3882 23.1975 15.3915C22.1482 15.3956 21.7921 15.3162 21.2631 14.9604C20.6099 14.5209 20.2137 13.7888 20.1003 12.8118L20.0457 12.3409H24.6673H29.2889L29.2485 11.4171C29.1495 9.15258 28.3745 7.43294 26.9193 6.24918C25.6427 5.21059 23.7307 4.74228 21.952 5.03247ZM23.8437 7.62373C24.3406 7.75277 24.777 8.02146 25.0441 8.36308C25.3241 8.72107 25.6134 9.37761 25.6753 9.7957L25.7284 10.1539H22.897C20.6367 10.1539 20.0656 10.1343 20.0656 10.0566C20.0656 9.78137 20.3337 9.01887 20.5414 8.70319C21.1749 7.74055 22.5552 7.28935 23.8437 7.62373ZM10.1002 10.2555C10.5541 10.4237 11.0571 10.8412 11.2497 11.2093C11.4678 11.6261 11.5769 12.4062 11.49 12.9259C11.3909 13.5182 11.302 13.717 10.982 14.0624C10.398 14.6929 9.62728 14.8261 6.55206 14.8282L4.59946 14.8295V12.4494V10.0693L7.17071 10.096C9.39436 10.1191 9.79037 10.1406 10.1002 10.2555Z" fill="black"/>
</svg>
