<svg width="19" height="19" viewBox="0 0 19 19" fill="none" xmlns="http://www.w3.org/2000/svg">
<path fill-rule="evenodd" clip-rule="evenodd" d="M4.92556 0.648281C2.79379 1.08397 1.21566 2.72137 0.880782 4.84512C0.827025 5.18624 0.812289 6.60024 0.82791 9.92337C0.851374 14.8938 0.834171 14.627 1.19302 15.5838C1.61233 16.7018 2.84179 17.928 3.9638 18.3473C4.92562 18.7068 4.68194 18.6927 9.92183 18.6927C15.1617 18.6927 14.9181 18.7068 15.8799 18.3473C17.0022 17.928 18.2308 16.7024 18.6512 15.5829C19.0115 14.6234 18.9974 14.8665 18.9974 9.63947C18.9974 4.41246 19.0115 4.65554 18.6512 3.69609C18.4683 3.20892 17.9894 2.49463 17.5459 2.04708C17.1105 1.60779 16.3793 1.11816 15.8808 0.932116C14.9178 0.5727 15.2079 0.590428 10.0799 0.576864C6.33843 0.566959 5.24981 0.582038 4.92556 0.648281ZM14.6941 2.67014C15.7849 2.9536 16.6251 3.79444 16.9108 4.88846C17.0513 5.42629 17.0513 13.8527 16.9108 14.3905C16.6251 15.4845 15.7849 16.3253 14.6941 16.6088C14.1383 16.7532 5.70535 16.7532 5.14957 16.6088C4.05873 16.3253 3.21854 15.4845 2.93286 14.3905C2.7924 13.8527 2.7924 5.42629 2.93286 4.88846C3.21487 3.80839 4.05336 2.96003 5.12237 2.6733C5.64483 2.53311 14.156 2.53034 14.6941 2.67014ZM14.5671 3.67174C13.929 3.94895 13.7783 4.79509 14.2782 5.29381C14.6885 5.703 15.2742 5.703 15.6845 5.29381C16.4694 4.51075 15.5864 3.22885 14.5671 3.67174ZM8.97317 4.68298C7.1759 5.06328 5.76196 6.27042 5.17467 7.92599C4.3802 10.1656 5.19447 12.5696 7.18925 13.8733C8.03957 14.4291 8.82234 14.6522 9.92183 14.6522C11.3511 14.6522 12.5031 14.1829 13.4898 13.1987C14.4765 12.2144 14.947 11.0653 14.947 9.63947C14.947 8.54255 14.7232 7.76158 14.166 6.9136C13.4438 5.81435 12.4432 5.09943 11.1244 4.74046C10.6324 4.60652 9.48007 4.57573 8.97317 4.68298ZM10.6465 6.70781C12.1497 7.09839 13.132 8.54287 12.9152 10.044C12.7387 11.2666 11.8477 12.259 10.6465 12.5711C9.06393 12.9823 7.40605 11.9828 6.98295 10.3623C6.41925 8.20358 8.4824 6.1455 10.6465 6.70781Z" fill="black"/>
</svg>
