<svg width="168" height="28" viewBox="0 0 168 28" fill="none" xmlns="http://www.w3.org/2000/svg">
<path d="M8.75 23.67C9.75 23.67 10.63 23.4 11.39 22.86C12.17 22.32 12.56 21.51 12.56 20.43C12.56 19.33 12.14 18.49 11.3 17.91C10.48 17.33 9.3 16.83 7.76 16.41C6.24 15.97 5.13 15.59 4.43 15.27C3.75 14.95 3.1 14.53 2.48 14.01C1.24 12.97 0.62 11.36 0.62 9.18C0.62 7.4 1.25 5.87 2.51 4.59C3.79 3.31 5.53 2.67 7.73 2.67C8.79 2.67 9.89 2.83 11.03 3.15C12.19 3.45 12.91 3.6 13.19 3.6C13.47 3.6 13.72 3.4 13.94 3H14.27L14.48 9.06H14C13.04 7.32 12.03 5.93 10.97 4.89C9.93 3.83 8.79 3.3 7.55 3.3C6.33 3.3 5.38 3.59 4.7 4.17C4.02 4.73 3.68 5.49 3.68 6.45C3.68 7.39 4.08 8.12 4.88 8.64C5.7 9.14 6.7 9.55 7.88 9.87C9.06 10.19 9.83 10.41 10.19 10.53C10.57 10.65 11.03 10.82 11.57 11.04C12.13 11.24 12.58 11.46 12.92 11.7C13.28 11.92 13.65 12.21 14.03 12.57C14.43 12.91 14.74 13.29 14.96 13.71C15.5 14.67 15.77 15.81 15.77 17.13C15.77 19.29 15.09 21.03 13.73 22.35C12.39 23.65 10.62 24.3 8.42 24.3C7.28 24.3 5.97 24.15 4.49 23.85C3.03 23.55 2.22 23.4 2.06 23.4C1.78 23.4 1.51 23.7 1.25 24.3H0.83L0.53 17.16H1.04C1.92 18.9 3.04 20.42 4.4 21.72C5.78 23.02 7.23 23.67 8.75 23.67ZM28.6871 18.57L33.9071 3.57H31.5671V3H36.1571V3.57H34.7471L27.5171 24.3H24.9971L17.3471 3.57H15.9671V3H25.7771V3.57H23.6471L28.6871 18.57ZM45.9148 27.81V0.149999H47.0848V27.81H45.9148ZM78.1055 13.14C78.1055 17.26 76.9455 20.13 74.6255 21.75C72.4855 23.25 69.5455 24 65.8055 24H57.3155V23.43H59.2955V3.57H57.3155V3H66.5855C70.4255 3 73.3055 3.79 75.2255 5.37C77.1455 6.93 78.1055 9.52 78.1055 13.14ZM65.1455 23.43H66.2855C68.3055 23.43 69.7455 22.72 70.6055 21.3C71.4855 19.86 71.9255 17.46 71.9255 14.1V12.36C71.9255 7.86 71.0655 5.15 69.3455 4.23C68.5255 3.79 67.3655 3.57 65.8655 3.57H65.1455V23.43ZM79.962 3H95.562L95.862 8.94H95.322C94.482 6.92 93.602 5.54 92.682 4.8C91.762 4.04 90.412 3.66 88.632 3.66H87.582V12.93H88.602C89.542 12.93 90.332 12.58 90.972 11.88C91.612 11.16 92.062 10.2 92.322 9H92.772V17.88H92.262C91.902 16.38 91.412 15.31 90.792 14.67C90.192 14.03 89.362 13.71 88.302 13.71H87.582V23.34H88.722C90.562 23.34 92.122 22.79 93.402 21.69C94.702 20.59 95.592 19.18 96.072 17.46H96.672L96.432 24H79.962V23.34H81.732V3.66H79.962V3ZM107.51 23.67C108.51 23.67 109.39 23.4 110.15 22.86C110.93 22.32 111.32 21.51 111.32 20.43C111.32 19.33 110.9 18.49 110.06 17.91C109.24 17.33 108.06 16.83 106.52 16.41C105 15.97 103.89 15.59 103.19 15.27C102.51 14.95 101.86 14.53 101.24 14.01C99.9998 12.97 99.3798 11.36 99.3798 9.18C99.3798 7.4 100.01 5.87 101.27 4.59C102.55 3.31 104.29 2.67 106.49 2.67C107.55 2.67 108.65 2.83 109.79 3.15C110.95 3.45 111.67 3.6 111.95 3.6C112.23 3.6 112.48 3.4 112.7 3H113.03L113.24 9.06H112.76C111.8 7.32 110.79 5.93 109.73 4.89C108.69 3.83 107.55 3.3 106.31 3.3C105.09 3.3 104.14 3.59 103.46 4.17C102.78 4.73 102.44 5.49 102.44 6.45C102.44 7.39 102.84 8.12 103.64 8.64C104.46 9.14 105.46 9.55 106.64 9.87C107.82 10.19 108.59 10.41 108.95 10.53C109.33 10.65 109.79 10.82 110.33 11.04C110.89 11.24 111.34 11.46 111.68 11.7C112.04 11.92 112.41 12.21 112.79 12.57C113.19 12.91 113.5 13.29 113.72 13.71C114.26 14.67 114.53 15.81 114.53 17.13C114.53 19.29 113.85 21.03 112.49 22.35C111.15 23.65 109.38 24.3 107.18 24.3C106.04 24.3 104.73 24.15 103.25 23.85C101.79 23.55 100.98 23.4 100.82 23.4C100.54 23.4 100.27 23.7 100.01 24.3H99.5898L99.2898 17.16H99.7998C100.68 18.9 101.8 20.42 103.16 21.72C104.54 23.02 105.99 23.67 107.51 23.67ZM116.498 3H125.648V3.57H123.998V23.43H125.648V24H116.498V23.43H118.148V3.57H116.498V3ZM138.112 23.7C139.092 23.7 139.712 23.52 139.972 23.16C140.252 22.8 140.392 22.19 140.392 21.33V15.51H138.472V14.85H147.112V15.51H145.942V23.97H145.492C145.132 23.47 144.622 23.22 143.962 23.22C143.682 23.22 142.842 23.4 141.442 23.76C140.062 24.12 138.882 24.3 137.902 24.3C134.642 24.3 132.112 23.42 130.312 21.66C128.532 19.9 127.642 17.26 127.642 13.74C127.642 10.2 128.572 7.47 130.432 5.55C132.312 3.63 134.832 2.67 137.992 2.67C139.212 2.67 140.432 2.83 141.652 3.15C142.892 3.45 143.612 3.6 143.812 3.6C144.012 3.6 144.162 3.56 144.262 3.48C144.362 3.38 144.472 3.22 144.592 3H144.922L145.162 9.51H144.622C143.642 7.57 142.652 6.05 141.652 4.95C140.672 3.83 139.572 3.27 138.352 3.27C135.292 3.27 133.762 6.26 133.762 12.24V14.61C133.762 17.61 134.132 19.88 134.872 21.42C135.632 22.94 136.712 23.7 138.112 23.7ZM165.792 3.57V24H161.592L151.302 4.59V23.43H152.952V24H148.842V23.43H150.492V3.57H148.842V3H157.122L164.982 18.06V3.57H163.332V3H167.442V3.57H165.792Z" fill="black"/>
</svg>
