<svg width="21" height="18" viewBox="0 0 21 18" fill="none" xmlns="http://www.w3.org/2000/svg">
<path fill-rule="evenodd" clip-rule="evenodd" d="M19.5131 0.938111C19.3627 0.987681 17.6752 1.63557 15.7631 2.37788C13.851 3.12018 9.8526 4.671 6.8778 5.82417C3.90299 6.97733 1.39971 7.9678 1.31498 8.02522C0.837366 8.34885 0.777835 8.8101 1.17944 9.07588C1.27104 9.13651 2.22514 9.46155 3.62401 9.90866C5.49541 10.5068 5.93283 10.6342 5.99694 10.5999C6.04018 10.5768 8.58045 9.00167 11.642 7.0996C15.6162 4.63049 17.267 3.62499 17.4132 3.58417C17.5722 3.53987 17.6401 3.53706 17.716 3.57167C17.8414 3.62878 17.8396 3.69854 17.7085 3.85428C17.6506 3.92315 15.4797 5.91202 12.8843 8.27397C10.2889 10.636 8.1653 12.5805 8.16518 12.5951C8.16506 12.6098 8.10369 13.3601 8.02881 14.2624C7.85826 16.3176 7.85865 16.2335 8.0183 16.4153C8.2278 16.6539 8.49651 16.7233 8.76932 16.6094C8.84323 16.5785 9.44373 16.0393 10.1255 15.3917C10.7984 14.7524 11.4029 14.1794 11.4687 14.1183L11.5884 14.0073L13.8372 15.7004C15.074 16.6316 16.1891 17.4431 16.3152 17.5036C16.6418 17.6606 17.0654 17.6828 17.2865 17.5545C17.4792 17.4427 17.6641 17.174 17.7705 16.851C17.8919 16.4825 20.8599 2.31534 20.8865 1.97729C20.929 1.43776 20.7835 1.06518 20.4662 0.90108C20.2967 0.813424 19.8371 0.831275 19.5131 0.938111Z" fill="black"/>
</svg>
