<svg width="21" height="21" viewBox="0 0 21 21" fill="none" xmlns="http://www.w3.org/2000/svg">
<path fill-rule="evenodd" clip-rule="evenodd" d="M10.263 0.270283C8.77558 0.423173 7.65371 0.745283 6.46683 1.3602C5.01851 2.1106 3.72797 3.26485 2.82859 4.61431C1.28082 6.93669 0.812069 9.78009 1.52926 12.496C1.70066 13.1451 1.88996 13.6317 2.25976 14.3736L2.59367 15.0435L1.71523 17.6354C1.23211 19.0608 0.839686 20.2302 0.843163 20.2339C0.846639 20.2377 2.06965 19.8529 3.56094 19.379L6.27238 18.5172L6.49039 18.6362C7.05711 18.9456 8.07621 19.3149 8.83726 19.4867C9.57797 19.6539 10.1594 19.7127 11.0638 19.712C12.0154 19.7113 12.6059 19.6374 13.5108 19.4059C15.1737 18.9804 16.7348 18.0837 17.9793 16.8392C19.5143 15.3042 20.4442 13.4117 20.7577 11.1842C20.8428 10.5798 20.8218 9.17102 20.7181 8.52794C20.5551 7.51704 20.2795 6.64802 19.8307 5.7302C19.3516 4.75032 18.7445 3.89942 17.9798 3.1361C16.4665 1.62544 14.5736 0.680009 12.392 0.345087C11.9991 0.284775 10.6003 0.235634 10.263 0.270283ZM11.915 1.85099C14.591 2.14575 16.9496 3.72962 18.2796 6.12485C19.0383 7.4913 19.3847 9.18782 19.2262 10.7601C19.0335 12.6705 18.2102 14.3982 16.8458 15.7554C14.618 17.9713 11.4253 18.7315 8.42711 17.7597C7.8698 17.5791 7.13945 17.2428 6.70254 16.9658C6.60066 16.9011 6.48996 16.8483 6.45656 16.8484C6.42316 16.8486 5.70445 17.0683 4.85937 17.3367C4.0143 17.6052 3.3182 17.8248 3.3125 17.8248C3.3068 17.8248 3.51269 17.2052 3.77 16.4479C4.02734 15.6906 4.25629 15.007 4.27883 14.9288C4.31812 14.7926 4.30965 14.7711 4.07 14.4015C2.79746 12.4386 2.43152 9.98806 3.07625 7.74669C3.97168 4.63372 6.70894 2.29333 9.95055 1.86911C10.44 1.80505 11.4162 1.79602 11.915 1.85099ZM7.33703 5.64309C7.02637 5.80692 6.57617 6.37114 6.41394 6.79997C6.0825 7.67614 6.21519 8.66708 6.79965 9.68028C7.16961 10.3216 7.92914 11.3144 8.53664 11.9508C9.48168 12.9405 10.3931 13.5528 11.6107 14.0157C12.5892 14.3877 13.2917 14.5814 13.6615 14.5811C13.987 14.5808 14.5177 14.4422 14.844 14.2722C15.4127 13.9759 15.7386 13.6423 15.8723 13.2197C15.9764 12.8908 16.0183 12.3057 15.9442 12.2164C15.8586 12.1132 14.0656 11.2379 13.7429 11.1418C13.5366 11.0802 13.4558 11.1369 13.0773 11.609C12.877 11.8588 12.6469 12.131 12.5659 12.214C12.4311 12.3522 12.4048 12.3633 12.2528 12.3461C12.0346 12.3215 11.1296 11.8761 10.7336 11.5984C10.0123 11.0926 9.29551 10.3279 8.85137 9.59044C8.65676 9.2672 8.67117 9.1911 8.99711 8.82091C9.33554 8.43653 9.50047 8.1622 9.50097 7.98282C9.50129 7.86356 8.86078 6.26184 8.63824 5.82544C8.51555 5.58481 8.44734 5.55895 7.93988 5.56091C7.56285 5.56235 7.4648 5.57571 7.33703 5.64309Z" fill="black"/>
</svg>
